<svg width="90" height="100" viewBox="0 0 90 100" fill="none" xmlns="http://www.w3.org/2000/svg">
<path d="M86.8295 76.8021L46.6847 99.5126V81.8284L71.6979 68.0652L86.8295 76.8021ZM89.5795 74.3152V26.8284L74.8952 35.3152V65.8415L89.5795 74.3152ZM3.01367 76.8021L43.1584 99.5126V81.8284L18.1321 68.0652L3.01367 76.8021ZM0.263672 74.3152V26.8284L14.9479 35.3152V65.8415L0.263672 74.3152ZM1.98736 23.7494L43.1584 0.459961V17.5521L16.7768 32.0652L16.5663 32.1836L1.98736 23.7494ZM87.8558 23.7494L46.6847 0.459961V17.5521L73.0663 32.0521L73.2768 32.1705L87.8558 23.7494Z" fill="#D1D2D6"/>
<path d="M43.1574 77.8019L18.4731 64.2229V37.3414L43.1574 51.5914V77.8019ZM46.6837 77.8019L71.3679 64.2361V37.3414L46.6837 51.5914V77.8019ZM20.1442 34.2361L44.9205 20.6177L69.6968 34.2361L44.9205 48.5387L20.1442 34.2361Z" fill="#D1D2D6"/>
</svg>
