<svg width="90" height="100" fill="none" xmlns="http://www.w3.org/2000/svg"><path d="M86.83 76.802l-40.145 22.71V81.829l25.013-13.763 15.132 8.737zm2.75-2.487V26.828l-14.685 8.487v30.526l14.684 8.474zM3.013 76.802l40.144 22.71V81.829L18.132 68.065 3.014 76.802zm-2.75-2.487V26.828l14.684 8.487v30.526L.264 74.316zM1.987 23.75L43.158.46v17.092L16.777 32.065l-.21.119-14.58-8.435zm85.869 0L46.685.46v17.092l26.381 14.5.21.118 14.58-8.42zM43.157 77.802l-24.684-13.58v-26.88l24.684 14.25v26.21zm3.527 0l24.684-13.566V37.341l-24.684 14.25v26.21zm-26.54-43.566L44.92 20.618l24.777 13.618L44.92 48.54 20.144 34.236z" fill="#D1D2D6"/></svg>